HIERARCHY
ROOT Hips
{
	OFFSET 0.000000 0.000000 0.000000
	CHANNELS 6 Xposition Yposition Zposition Zrotation Yrotation Xrotation 
	JOINT LHipJoint
	{
		OFFSET 0.000000 0.000000 0.000000
		CHANNELS 3 Zrotation Yrotation Xrotation
		JOINT LeftUpLeg
		{
			OFFSET 1.363060 -1.794630 0.839290
			CHANNELS 3 Zrotation Yrotation Xrotation
			JOINT LeftLeg
			{
				OFFSET 2.448110 -6.726130 0.000000
				CHANNELS 3 Zrotation Yrotation Xrotation
				JOINT LeftFoot
				{
					OFFSET 2.562200 -7.039590 0.000000
					CHANNELS 3 Zrotation Yrotation Xrotation
					JOINT LeftToeBase
					{
						OFFSET 0.157640 -0.433110 2.322550
						CHANNELS 3 Zrotation Yrotation Xrotation
						End Site
						{
							OFFSET 0.000000 0.000000 0.000000
						}
					}
				}
			}
		}
	}
	JOINT RHipJoint
	{
		OFFSET 0.000000 0.000000 0.000000
		CHANNELS 3 Zrotation Yrotation Xrotation
		JOINT RightUpLeg
		{
			OFFSET -1.305520 -1.794630 0.839290
			CHANNELS 3 Zrotation Yrotation Xrotation
			JOINT RightLeg
			{
				OFFSET -2.542530 -6.985550 0.000000
				CHANNELS 3 Zrotation Yrotation Xrotation
				JOINT RightFoot
				{
					OFFSET -2.568260 -7.056230 0.000000
					CHANNELS 3 Zrotation Yrotation Xrotation
					JOINT RightToeBase
					{
						OFFSET -0.164730 -0.452590 2.363150
						CHANNELS 3 Zrotation Yrotation Xrotation
						End Site
						{
							OFFSET 0.000000 0.000000 0.000000
						}
					}
				}
			}
		}
	}
	JOINT LowerBack
	{
		OFFSET 0.000000 0.000000 0.000000
		CHANNELS 3 Zrotation Yrotation Xrotation
		JOINT Spine
		{
			OFFSET 0.028270 2.035590 -0.193380
			CHANNELS 3 Zrotation Yrotation Xrotation
			JOINT Spine1
			{
				OFFSET 0.056720 2.048850 -0.042750
				CHANNELS 3 Zrotation Yrotation Xrotation
				JOINT Neck
				{
					OFFSET 0.000000 0.000000 0.000000
					CHANNELS 3 Zrotation Yrotation Xrotation
					JOINT Neck1
					{
						OFFSET -0.054170 1.746240 0.172020
						CHANNELS 3 Zrotation Yrotation Xrotation
						JOINT Head
						{
							OFFSET 0.104070 1.761360 -0.123970
							CHANNELS 3 Zrotation Yrotation Xrotation
							End Site
							{
								OFFSET 0.000000 0.000000 0.000000
							}
						}
					}
				}
				JOINT LeftShoulder
				{
					OFFSET 0.000000 0.000000 0.000000
					CHANNELS 3 Zrotation Yrotation Xrotation
					JOINT LeftArm
					{
						OFFSET 3.362410 1.200890 -0.311210
						CHANNELS 3 Zrotation Yrotation Xrotation
						JOINT LeftForeArm
						{
							OFFSET 4.983000 -0.000000 -0.000000
							CHANNELS 3 Zrotation Yrotation Xrotation
							JOINT LeftHand
							{
								OFFSET 3.483560 -0.000000 -0.000000
								CHANNELS 3 Zrotation Yrotation Xrotation
								JOINT LeftFingerBase
								{
									OFFSET 0.000000 0.000000 0.000000
									CHANNELS 3 Zrotation Yrotation Xrotation
									JOINT LeftHandIndex1
									{
										OFFSET 0.715260 -0.000000 -0.000000
										CHANNELS 3 Zrotation Yrotation Xrotation
										End Site
										{
											OFFSET 0.000000 0.000000 0.000000
										}
									}
								}
								JOINT LThumb
								{
									OFFSET 0.000000 0.000000 0.000000
									CHANNELS 3 Zrotation Yrotation Xrotation
									End Site
									{
										OFFSET 0.000000 0.000000 0.000000
									}
								}
							}
						}
					}
				}
				JOINT RightShoulder
				{
					OFFSET 0.000000 0.000000 0.000000
					CHANNELS 3 Zrotation Yrotation Xrotation
					JOINT RightArm
					{
						OFFSET -3.136600 1.374050 -0.404650
						CHANNELS 3 Zrotation Yrotation Xrotation
						JOINT RightForeArm
						{
							OFFSET -5.241900 -0.000000 -0.000000
							CHANNELS 3 Zrotation Yrotation Xrotation
							JOINT RightHand
							{
								OFFSET -3.444170 -0.000000 -0.000000
								CHANNELS 3 Zrotation Yrotation Xrotation
								JOINT RightFingerBase
								{
									OFFSET 0.000000 0.000000 0.000000
									CHANNELS 3 Zrotation Yrotation Xrotation
									JOINT RightHandIndex1
									{
										OFFSET -0.622530 -0.000000 -0.000000
										CHANNELS 3 Zrotation Yrotation Xrotation
										End Site
										{
											OFFSET 0.000000 0.000000 0.000000
										}
									}
								}
								JOINT RThumb
								{
									OFFSET 0.000000 0.000000 0.000000
									CHANNELS 3 Zrotation Yrotation Xrotation
									End Site
									{
										OFFSET 0.000000 0.000000 0.000000
									}
								}
							}
						}
					}
				}
			}
		}
	}
}
MOTION
Frames: 12
Frame Time: 0.008333
11.826016 17.026698 12.141117 -1.234536 -76.505823 28.698470 3.586689 1.507660 -0.279284 -7.297055 -12.939953 -52.031899 3.605400 14.480941 38.825986 0.469432 4.555899 -16.714714 12.135500 -18.447300 -66.417500 -9.948143 -3.993616 -1.896243 -4.701092 19.233274 -9.048158 1.202753 -2.643923 9.620298 5.879561 -39.079927 -10.531040 -1.123500 -6.732800 18.926100 -10.518619 -1.607801 14.251311 0.425697 -3.017644 -4.636999 5.363306 -1.542991 -2.828754 -10.362053 -12.528583 -2.805279 14.062271 -17.261355 -10.152746 6.020400 -8.759900 -2.900000 2.422020 -5.315637 1.463694 -88.966642 -19.965715 78.610667 108.611176 -54.345380 -75.383219 -1.318836 1.619372 11.096192 59.443161 -19.336989 -32.918100 -7.125000 0.000000 0.000000 18.991300 -6.596700 -22.239300 0.111054 4.870087 1.852033 69.169424 -5.750555 -29.309317 -55.548199 52.444266 -35.884011 0.690331 -0.602583 -40.129179 -15.738964 -23.043328 6.106100 7.125000 0.000000 0.000000 13.306900 -52.366000 -2.448000 
11.812302 17.026482 12.125891 -0.752628 -76.746000 28.244090 3.586268 1.534711 -0.259117 -7.442409 -12.818983 -52.066054 3.622654 14.509061 38.909989 0.466100 4.610391 -16.720456 12.101000 -18.433000 -66.308700 -9.973810 -3.973986 -1.916912 -4.888328 19.093288 -9.204884 1.173173 -2.654530 9.663322 5.614482 -38.886991 -8.505447 -0.676200 -5.258300 14.646700 -10.800771 -1.767497 14.472545 0.496111 -3.258727 -4.631122 5.761403 -1.673744 -2.727684 -10.800603 -13.458296 -3.174011 14.728101 -18.530811 -9.655987 6.223500 -9.369600 -2.377400 2.417358 -5.288180 1.431376 -88.826239 -19.720753 77.962941 109.208874 -54.241425 -75.974918 -1.335883 1.610399 11.064152 59.401786 -19.147640 -32.636700 -7.125000 0.000000 0.000000 19.037800 -6.272200 -22.203900 0.160662 4.853218 1.836772 68.650400 -5.462719 -29.232106 -55.216288 52.320692 -35.585332 0.682357 -0.589827 -40.174204 -15.266516 -22.869570 5.877700 7.125000 0.000000 0.000000 13.702900 -52.130000 -2.443000 
11.800315 17.025618 12.113473 -0.579671 -76.955581 28.100393 3.583165 1.551621 -0.246373 -7.451319 -12.744421 -52.113390 3.645581 14.545284 39.019760 0.465710 4.693152 -16.792835 12.083200 -18.425600 -66.252400 -9.972135 -3.958506 -1.913038 -5.033962 19.104022 -9.314573 1.158120 -2.671008 9.697528 5.463655 -38.521568 -8.264115 -0.583400 -4.890600 13.596800 -10.983253 -1.996752 14.661279 0.584428 -3.580422 -4.643886 6.184756 -1.830750 -2.694148 -11.540210 -13.894475 -3.322423 15.621757 -19.165115 -9.501099 6.606200 -9.668700 -2.008700 2.395042 -5.288292 1.416548 -88.687948 -19.417958 77.150614 109.798143 -54.139708 -76.574044 -1.357495 1.600886 10.938972 59.517748 -19.097333 -32.691900 -7.125000 0.000000 0.000000 19.128800 -6.265800 -22.320700 0.199150 4.821410 1.833790 68.073605 -5.211810 -28.951107 -55.030191 52.250114 -35.413925 0.666422 -0.558329 -40.409369 -14.968133 -23.311987 5.879300 7.125000 0.000000 0.000000 14.197900 -52.550800 -2.682200 
11.788221 17.024215 12.099975 -0.529717 -77.136031 28.129456 3.582012 1.552241 -0.249760 -7.408243 -12.697425 -52.123305 3.643405 14.548975 39.022305 0.453309 4.869456 -16.801245 12.060500 -18.416100 -66.180400 -9.963402 -3.952797 -1.899123 -5.140863 19.176827 -9.399632 1.160135 -2.673583 9.674891 5.444476 -38.361497 -8.653547 -0.625700 -5.061700 14.084600 -11.036801 -2.172960 14.744478 0.618349 -3.824857 -4.651443 6.337849 -1.943171 -2.714768 -12.452082 -14.106510 -2.777259 16.629093 -19.575578 -9.874059 7.185600 -9.867900 -1.955900 2.356175 -5.316962 1.435072 -88.287668 -19.047112 76.446563 110.516780 -54.021140 -77.290534 -1.368169 1.589988 10.775946 59.387090 -19.254219 -32.707200 -7.125000 0.000000 0.000000 19.024700 -6.354400 -22.211300 0.188821 4.772748 1.842414 67.853065 -5.014076 -28.892543 -54.860848 52.190144 -35.263923 0.657777 -0.539299 -40.390312 -14.882406 -23.829700 5.979000 7.125000 0.000000 0.000000 14.518300 -53.065800 -2.929900 
11.772995 17.023783 12.084317 -0.271901 -77.385991 27.884062 3.577730 1.559893 -0.253779 -7.500950 -12.534778 -51.971700 3.609942 14.511099 38.889008 0.438330 5.002831 -16.743309 12.048300 -18.411000 -66.141900 -9.941758 -3.937012 -1.900383 -5.273023 19.251993 -9.372351 1.163802 -2.655806 9.617983 5.425769 -38.130674 -9.264275 -0.738500 -5.489900 15.311300 -11.161558 -2.248614 14.852918 0.621778 -3.948693 -4.641184 6.384516 -2.013480 -2.676954 -12.577196 -14.236230 -2.787674 17.159069 -19.779955 -9.968610 7.387700 -9.984200 -1.868500 2.341675 -5.316799 1.441521 -87.874842 -18.679230 75.920101 111.229494 -53.895620 -77.982233 -1.374037 1.580375 10.712034 59.157265 -19.315269 -32.501800 -7.125000 0.000000 0.000000 18.893900 -6.233000 -22.004900 0.182862 4.756193 1.842631 67.821130 -4.759212 -29.028994 -54.659321 52.117371 -35.092344 0.662964 -0.533722 -40.270639 -15.346380 -23.818012 6.171500 7.125000 0.000000 0.000000 14.043900 -53.136800 -2.855700 
11.758849 17.023459 12.065851 0.168525 -77.604010 27.457620 3.571430 1.581455 -0.247360 -7.620016 -12.374627 -51.881657 3.587033 14.489810 38.802086 0.431670 5.055997 -16.715348 12.064400 -18.417700 -66.192700 -9.902422 -3.907754 -1.905555 -5.428392 19.363243 -9.281328 1.171937 -2.630546 9.550925 5.437328 -37.777528 -10.704271 -1.019500 -6.423500 18.018400 -11.352370 -2.359960 14.971389 0.661828 -4.116577 -4.630812 6.498512 -2.111864 -2.618103 -11.575736 -14.132777 -2.848189 16.905309 -19.581383 -10.537531 7.154900 -9.949700 -2.271100 2.383478 -5.274441 1.443449 -87.613761 -18.327435 75.391849 111.871709 -53.770450 -78.598646 -1.390626 1.571168 10.669289 59.255069 -19.221472 -32.483900 -7.125000 0.000000 0.000000 18.986000 -6.149900 -22.100000 0.242779 4.769677 1.850779 67.713048 -4.436810 -29.038748 -54.424929 52.038840 -34.869355 0.670542 -0.527782 -40.259128 -15.714077 -23.615906 6.275100 7.125000 0.000000 0.000000 13.578300 -53.001500 -2.712800 
11.747726 17.023243 12.049545 0.397378 -77.719438 27.343693 3.568325 1.592698 -0.242257 -7.609268 -12.290267 -51.970708 3.579144 14.489359 38.778187 0.429135 5.091170 -16.719311 12.076200 -18.422700 -66.230100 -9.889012 -3.894739 -1.903615 -5.477354 19.325237 -9.329188 1.176360 -2.600609 9.461365 5.382640 -37.474955 -11.301020 -1.054400 -6.529300 18.328200 -11.357304 -2.453673 14.979432 0.696557 -4.230008 -4.630318 6.374536 -2.194266 -2.551483 -9.166390 -14.423354 -2.776062 15.184466 -19.876165 -11.227566 6.189200 -10.184700 -3.088200 2.497692 -5.182727 1.427543 -87.343926 -18.059076 75.173270 112.392936 -53.660415 -79.082207 -1.413151 1.559514 10.504763 59.662340 -19.174816 -32.865700 -7.125000 0.000000 0.000000 19.228700 -6.376000 -22.484400 0.356819 4.829612 1.844672 67.769716 -4.206536 -29.199158 -54.269419 51.982172 -34.703605 0.670782 -0.528026 -40.257374 -15.722019 -23.666764 6.291500 7.125000 0.000000 0.000000 13.592700 -53.052800 -2.733000 
11.738872 17.025402 12.036371 0.345885 -77.790566 27.523114 3.568690 1.581578 -0.254201 -7.520733 -12.219185 -52.044034 3.563792 14.476019 38.719646 0.426426 5.156114 -16.754346 12.083700 -18.425800 -66.253800 -9.896928 -3.905000 -1.900594 -5.405692 19.106903 -9.462855 1.174554 -2.565418 9.346368 5.245527 -37.152147 -10.954847 -0.848700 -5.875900 16.424700 -11.204024 -2.402250 14.984415 0.681486 -4.150075 -4.626133 6.235028 -2.146108 -2.633953 -9.157532 -14.428526 -2.126666 15.683538 -19.924332 -12.075766 6.496100 -10.250800 -3.463300 2.499260 -5.197999 1.452319 -87.088738 -17.838146 75.376624 112.853564 -53.567513 -79.493041 -1.427266 1.548344 10.244106 59.869337 -19.339402 -33.275500 -7.125000 0.000000 0.000000 19.298700 -6.750600 -22.688400 0.341851 4.824280 1.857937 67.957767 -4.205153 -29.621477 -54.206228 51.943660 -34.656084 0.666125 -0.540597 -40.423999 -15.670589 -23.622324 6.251500 7.125000 0.000000 0.000000 13.635700 -52.992000 -2.721400 
11.732824 17.028858 12.020065 0.482342 -77.923515 27.478321 3.567752 1.580179 -0.257616 -7.480535 -12.156669 -52.048175 3.538614 14.451643 38.624867 0.421994 5.273790 -16.823579 12.064800 -18.417900 -66.194000 -9.901742 -3.906097 -1.899854 -5.399346 18.950534 -9.565526 1.176427 -2.521865 9.218769 5.158981 -36.991737 -10.551485 -0.694200 -5.326100 14.841100 -11.150845 -2.423726 15.005630 0.689051 -4.173269 -4.631045 6.275484 -2.165649 -2.567652 -9.622564 -14.841573 -2.840505 16.079463 -20.469686 -11.033642 6.537600 -10.476400 -2.741500 2.478209 -5.197409 1.430150 -86.917397 -17.670613 75.266680 113.297349 -53.478352 -79.905996 -1.428659 1.545394 10.119576 59.602344 -19.480308 -33.134200 -7.125000 0.000000 0.000000 19.118700 -6.730900 -22.445800 0.314437 4.821393 1.832959 67.959783 -4.064222 -29.683798 -54.207165 51.928119 -34.655101 0.668988 -0.551004 -40.621024 -15.579879 -23.256304 6.114600 7.125000 0.000000 0.000000 13.568300 -52.603500 -2.577300 
11.727641 17.032313 12.001816 0.968397 -78.161846 27.076607 3.568298 1.585798 -0.265084 -7.552562 -12.050540 -52.001475 3.499727 14.412521 38.476443 0.415734 5.402967 -16.884894 12.064500 -18.417800 -66.193100 -9.884287 -3.887879 -1.897795 -5.573812 18.955510 -9.655272 1.190100 -2.473517 9.059507 5.163699 -36.936648 -10.914719 -0.746400 -5.518700 15.394200 -11.208676 -2.449671 14.994903 0.690440 -4.216836 -4.624561 6.338008 -2.188466 -2.502552 -10.182090 -15.395727 -2.776979 16.731812 -21.310137 -10.028342 6.758900 -10.861800 -2.111200 2.452847 -5.212457 1.420286 -86.807599 -17.530674 74.966692 113.587342 -53.427981 -80.186895 -1.426051 1.541990 10.100997 59.240987 -19.414824 -32.650500 -7.125000 0.000000 0.000000 18.946500 -6.350400 -22.108100 0.288599 4.782422 1.813487 67.920632 -3.915659 -29.557509 -54.189337 51.924003 -34.632497 0.673575 -0.551182 -40.472811 -15.511659 -23.209379 6.076400 7.125000 0.000000 0.000000 13.608400 -52.543200 -2.564800 
11.723430 17.037389 11.982163 1.068335 -78.372053 27.043320 3.564279 1.578879 -0.283255 -7.525117 -11.890376 -51.916584 3.448035 14.355465 38.268315 0.408047 5.525942 -16.928289 12.118200 -18.440200 -66.363100 -9.878663 -3.879912 -1.883055 -5.627608 19.069112 -9.771748 1.210867 -2.448506 8.949385 5.261924 -37.092237 -11.650423 -0.868800 -5.943000 16.619100 -11.191453 -2.393620 14.994421 0.678110 -4.143613 -4.618313 6.288164 -2.151995 -2.522492 -10.093455 -15.426349 -2.628465 16.841484 -21.359927 -10.185766 6.808900 -10.901300 -2.189400 2.452993 -5.214950 1.426710 -86.636879 -17.413289 74.848267 113.803569 -53.384937 -80.394612 -1.431803 1.534103 10.026259 59.293147 -19.390271 -32.666500 -7.125000 0.000000 0.000000 18.985700 -6.339500 -22.156000 0.287348 4.781988 1.815158 67.970226 -3.878886 -29.622347 -54.089803 51.890923 -34.538315 0.670642 -0.544242 -40.360822 -15.522451 -23.638812 6.194200 7.125000 0.000000 0.000000 13.785300 -52.977000 -2.747100 
11.720298 17.043436 11.957326 0.781846 -78.476123 27.402672 3.555984 1.563928 -0.302115 -7.358474 -11.725106 -51.848853 3.393531 14.292034 38.039853 0.396802 5.640674 -16.916827 12.156900 -18.456200 -66.485300 -9.905543 -3.889168 -1.867180 -5.482162 19.146735 -9.923074 1.222981 -2.458065 8.944396 5.369357 -37.436972 -11.634922 -0.831600 -5.817600 16.256200 -11.145399 -2.335572 14.990728 0.688903 -4.052847 -4.609264 6.316805 -2.111087 -2.509847 -9.984515 -15.414200 -2.733525 16.789868 -21.325979 -10.200536 6.761500 -10.888000 -2.200700 2.458507 -5.210168 1.429083 -86.469838 -17.375317 74.778813 114.054959 -53.328450 -80.633058 -1.439922 1.529009 9.978194 59.482047 -19.449017 -32.933700 -7.125000 0.000000 0.000000 19.075200 -6.553800 -22.336400 0.295212 4.783477 1.814072 67.998817 -3.799707 -29.682854 -53.967741 51.847695 -34.417592 0.668731 -0.540172 -40.515988 -15.544086 -23.870958 6.263100 7.125000 0.000000 0.000000 13.870600 -53.213700 -2.845700 
